<?xml version="1.0" standalone="no"?>
<!DOCTYPE svg PUBLIC "-//W3C//DTD SVG 20010904//EN"
 "http://www.w3.org/TR/2001/REC-SVG-20010904/DTD/svg10.dtd">
<svg version="1.0" xmlns="http://www.w3.org/2000/svg"
 width="240.000000pt" height="240.000000pt" viewBox="0 0 240.000000 240.000000"
 preserveAspectRatio="xMidYMid meet">

<g transform="translate(0.000000,240.000000) scale(0.100000,-0.100000)"
fill="#000000" stroke="none">
<path d="M1020 2385 c-168 -27 -359 -104 -500 -203 -99 -69 -257 -235 -318
-335 -120 -193 -172 -364 -179 -590 -8 -217 23 -374 109 -559 l41 -88 -82
-301 c-45 -166 -81 -302 -79 -304 2 -1 138 33 303 77 165 43 311 77 325 75 14
-3 61 -21 105 -40 207 -92 470 -119 694 -72 450 94 801 428 918 872 35 132 43
364 18 498 -47 255 -151 453 -334 636 -269 270 -644 393 -1021 334z m422 -214
c178 -46 331 -133 459 -261 89 -89 147 -172 201 -286 68 -147 82 -214 82 -414
0 -208 -15 -276 -94 -435 -98 -199 -252 -351 -455 -451 -154 -75 -253 -98
-430 -98 -177 0 -275 23 -431 99 l-111 54 -173 -45 c-94 -25 -177 -44 -184
-42 -9 2 1 53 36 179 l49 176 -40 69 c-101 176 -136 319 -128 528 6 168 27
259 92 393 85 174 210 313 375 415 120 74 206 105 400 142 57 11 277 -3 352
-23z"/>
<path d="M745 1750 c-32 -12 -94 -87 -116 -138 -62 -143 -22 -291 135 -499
178 -237 400 -394 647 -458 129 -34 245 -8 329 74 40 39 50 55 60 104 19 93
17 96 -127 164 -176 83 -159 81 -207 27 -23 -26 -55 -63 -73 -83 l-31 -36 -49
18 c-84 31 -184 97 -258 171 -74 74 -145 172 -145 201 0 10 18 39 40 65 66 78
66 84 14 213 -54 131 -73 169 -88 179 -15 10 -106 9 -131 -2z"/>
</g>
</svg>
